<?xml version="1.0" encoding="UTF-8"?>
<svg id="Ebene_1" data-name="Ebene 1" xmlns="http://www.w3.org/2000/svg" viewBox="0 0 70.73 82.89">
  <defs>
    <style>
      .cls-1 {
        fill: #c90130;
      }

      .cls-2 {
        fill: #151515;
      }
    </style>
  </defs>
  <path class="cls-2" d="m69.16,67.62h-1.9v1.94h1.9v-1.94Zm-3.48,15.06h5.05v-1.22l-1.57-.27v-8.96h-3.48v1.23l1.57.27v7.46l-1.57.27v1.22Zm-5.92-12.97v2.52h-1.65v1.41h1.65v6.34c0,1,.23,1.73.69,2.2.46.47,1.07.7,1.84.7.35,0,.7-.04,1.04-.11.35-.07.61-.17.79-.29l-.26-1.3c-.14.03-.32.06-.53.09-.21.03-.4.04-.56.04-.34,0-.6-.1-.81-.3-.2-.2-.3-.54-.3-1.03v-6.34h1.98v-1.41h-1.98v-2.52h-1.9Zm-7.22,0v2.52h-1.65v1.41h1.65v6.34c0,1,.23,1.73.69,2.2.46.47,1.07.7,1.84.7.35,0,.7-.04,1.04-.11.35-.07.61-.17.79-.29l-.26-1.3c-.14.03-.32.06-.53.09-.21.03-.4.04-.56.04-.34,0-.6-.1-.81-.3-.2-.2-.3-.54-.3-1.03v-6.34h1.98v-1.41h-1.98v-2.52h-1.9Zm-5.49,4.58c.4.5.6,1.13.6,1.87v.25h-4.82l-.02-.05c.1-.81.38-1.49.83-2.02.45-.54,1-.81,1.63-.81.79,0,1.38.25,1.78.75m.73,8.22c.61-.25,1.11-.55,1.48-.91l-.74-1.24c-.35.32-.77.57-1.26.76-.49.18-1.05.27-1.69.27-.88,0-1.57-.32-2.06-.97-.49-.65-.74-1.47-.76-2.48l.03-.05h6.78v-1.19c0-1.41-.36-2.55-1.09-3.4-.72-.85-1.79-1.27-3.19-1.27-1.21,0-2.26.49-3.14,1.48-.89.99-1.33,2.23-1.33,3.71v.43c0,1.54.43,2.8,1.29,3.77.86.97,2.02,1.45,3.47,1.45.86,0,1.6-.12,2.22-.37m-12.16-8.87v7.55l-1.57.27v1.22h5.05v-1.22l-1.57-.27v-7.55h2.18v-1.41h-2.18v-1.32c0-.63.14-1.11.41-1.44.27-.33.69-.5,1.25-.5.17,0,.34,0,.51.03.16.02.3.04.42.07l.23-1.45c-.27-.06-.52-.11-.74-.15-.22-.04-.44-.05-.66-.05-1.04,0-1.86.3-2.44.91-.58.61-.87,1.47-.87,2.58v1.32h-1.63v1.41h1.63Zm-14.66,9.04h5.05v-1.22l-1.57-.27v-6.13c.25-.46.59-.82,1.01-1.08.42-.26.91-.4,1.45-.4.75,0,1.3.19,1.67.58.36.39.54,1.04.54,1.96v5.07l-1.57.27v1.22h5.05v-1.22l-1.57-.27v-5.11c0-1.38-.31-2.4-.93-3.06-.62-.66-1.49-.99-2.62-.99-.67,0-1.27.15-1.79.46-.53.31-.96.74-1.31,1.29l-.14-1.55h-3.27v1.23l1.57.27v7.46l-1.57.27v1.22Zm-8.58-5.32c0-1.09.23-2,.69-2.73.46-.73,1.15-1.09,2.07-1.09s1.61.36,2.08,1.09c.47.73.71,1.64.71,2.73v.21c0,1.11-.24,2.02-.71,2.74-.47.72-1.16,1.08-2.06,1.08s-1.61-.36-2.08-1.08c-.47-.72-.7-1.63-.7-2.74v-.21Zm-1.9.21c0,1.55.42,2.82,1.26,3.82.84.99,1.98,1.49,3.43,1.49s2.57-.5,3.41-1.49c.84-.99,1.26-2.27,1.26-3.82v-.21c0-1.55-.42-2.83-1.26-3.82-.84-1-1.98-1.5-3.42-1.5s-2.57.5-3.41,1.5c-.84,1-1.26,2.27-1.26,3.82v.21Zm-7.95,2.76c-.43-.71-.64-1.6-.64-2.67v-.41c0-1.04.21-1.92.64-2.64.43-.72,1.14-1.08,2.14-1.08.44,0,.84.07,1.2.2.35.14.64.31.87.53l.42,1.64h1.52l-.09-2.32c-.44-.48-.99-.86-1.66-1.14-.67-.28-1.42-.42-2.25-.42-1.51,0-2.67.5-3.48,1.49-.8.99-1.21,2.23-1.21,3.72v.41c0,1.5.4,2.75,1.2,3.74.8.99,1.96,1.49,3.48,1.49,1.11,0,2.08-.35,2.91-1.05.83-.7,1.23-1.5,1.2-2.4l-.02-.06h-1.71c0,.57-.24,1.04-.72,1.43-.48.39-1.03.58-1.67.58-1,0-1.72-.35-2.14-1.07"/>
  <rect class="cls-2" x="24.77" y="4.75" width="22.93" height="22.93" transform="translate(-.85 30.37) rotate(-45)"/>
  <rect class="cls-2" x="7.77" y="21.75" width="22.93" height="22.93" transform="translate(-17.85 23.33) rotate(-45)"/>
  <rect class="cls-2" x="41.78" y="21.75" width="22.93" height="22.93" transform="translate(-7.89 47.37) rotate(-45)"/>
  <polygon class="cls-1" points="9.64 60.79 36.27 34.16 62.9 60.79 9.64 60.79"/>
</svg>